<svg width="226" height="229" viewBox="0 0 226 229" fill="none" xmlns="http://www.w3.org/2000/svg">
<path d="M198.697 114H226C226 49.0128 173.128 0 103 0V25.3361C158.452 25.3361 198.697 62.6183 198.697 114Z" fill="black"/>
<path d="M112.278 83.0531C135.89 83.0531 145.961 93.1234 145.961 116.733H168.416C168.416 80.527 148.487 60.5997 112.278 60.5997V83.0531ZM150.699 144.16C148.541 142.199 145.706 141.154 142.792 141.244C139.878 141.334 137.113 142.552 135.081 144.643L108.214 172.272C101.747 171.037 88.7453 166.984 75.3621 153.635C61.9789 140.242 57.9258 127.208 56.7245 120.786L84.3329 93.9093C86.4258 91.8787 87.6465 89.1135 87.7366 86.1988C87.8267 83.2842 86.7792 80.4489 84.8157 78.2929L43.3301 32.6789C41.3657 30.5162 38.6356 29.2043 35.7195 29.0219C32.8035 28.8395 29.9312 29.801 27.7126 31.7022L3.34896 52.595C1.40785 54.543 0.249267 57.1357 0.0929857 59.8812C-0.0754267 62.6878 -3.28649 129.172 48.2702 180.748C93.2475 225.711 149.587 229 165.103 229C167.371 229 168.764 228.933 169.134 228.91C171.879 228.757 174.471 227.593 176.41 225.643L197.293 201.27C199.195 199.053 200.159 196.182 199.979 193.266C199.798 190.35 198.488 187.619 196.327 185.654L150.699 144.16V144.16Z" fill="black"/>
</svg>
