<svg width="200" height="200" viewBox="0 0 200 200" fill="none" xmlns="http://www.w3.org/2000/svg">
<path d="M6.37779 21.4333L89.7111 88.5833C92.5111 90.8333 96.1333 91.9 99.7778 91.9C103.422 91.9 107.044 90.8333 109.844 88.5833L193.178 21.4333C198.611 17.05 203.744 0 193.778 0H5.78891C-4.17776 0 0.955573 17.05 6.37779 21.4333V21.4333ZM195.7 58.15L109.844 125.267C106.067 128.233 103.422 128.583 99.7778 128.583C96.1333 128.583 93.4889 128.233 89.7111 125.267C85.9333 122.3 10.4556 62.95 4.28891 58.1333C-0.044426 54.7333 1.79563e-05 58.7167 1.79563e-05 61.7833V183.333C1.79563e-05 190.333 6.28891 200 11.1111 200H188.889C193.711 200 200 190.333 200 183.333V61.8C200 58.7333 200.044 54.75 195.7 58.15V58.15Z" fill="black"/>
</svg>
