<svg width="448" height="512" viewBox="0 0 448 512" fill="none" xmlns="http://www.w3.org/2000/svg">
<path d="M352 320C329.392 320 308.613 327.819 292.21 340.895L189.724 276.841C192.759 263.112 192.759 248.887 189.724 235.158L292.21 171.104C308.613 184.181 329.392 192 352 192C405.019 192 448 149.019 448 96C448 42.981 405.019 0 352 0C298.981 0 256 42.981 256 96C256 103.158 256.79 110.13 258.276 116.841L155.79 180.895C139.387 167.819 118.608 160 96 160C42.981 160 0 202.981 0 256C0 309.019 42.981 352 96 352C118.608 352 139.387 344.181 155.79 331.105L258.276 395.159C256.761 402.002 255.998 408.991 256 416C256 469.019 298.981 512 352 512C405.019 512 448 469.019 448 416C448 362.981 405.019 320 352 320Z" fill="black"/>
</svg>
